<svg id="visual" viewBox="0 0 900 300" width="900" height="300" xmlns="http://www.w3.org/2000/svg" xmlns:xlink="http://www.w3.org/1999/xlink" version="1.1"><rect x="0" y="0" width="900" height="300" fill="#002233"></rect><path d="M0 98L21.5 88.2C43 78.3 86 58.7 128.8 59.7C171.7 60.7 214.3 82.3 257.2 85.7C300 89 343 74 385.8 65C428.7 56 471.3 53 514.2 56.7C557 60.3 600 70.7 642.8 74.8C685.7 79 728.3 77 771.2 69.7C814 62.3 857 49.7 878.5 43.3L900 37L900 0L878.5 0C857 0 814 0 771.2 0C728.3 0 685.7 0 642.8 0C600 0 557 0 514.2 0C471.3 0 428.7 0 385.8 0C343 0 300 0 257.2 0C214.3 0 171.7 0 128.8 0C86 0 43 0 21.5 0L0 0Z" fill="#0066FF" stroke-linecap="round" stroke-linejoin="miter"></path></svg>